<svg width="24" height="24" viewBox="0 0 24 24" fill="none" xmlns="http://www.w3.org/2000/svg">
    <path fill-rule="evenodd" clip-rule="evenodd"
        d="M6.8 1.25H6.7679H6.76788C5.95505 1.24999 5.29944 1.24999 4.76853 1.29336C4.2219 1.33803 3.74176 1.43239 3.29754 1.65873C2.59193 2.01825 2.01825 2.59193 1.65873 3.29754C1.43239 3.74175 1.33803 4.2219 1.29336 4.76853C1.24999 5.29943 1.24999 5.95503 1.25 6.76785V6.7679V6.8V17.2V17.2321V17.2321C1.24999 18.045 1.24999 18.7006 1.29336 19.2315C1.33803 19.7781 1.43239 20.2582 1.65873 20.7025C2.01825 21.4081 2.59193 21.9817 3.29754 22.3413C3.74176 22.5676 4.2219 22.662 4.76853 22.7066C5.29944 22.75 5.95505 22.75 6.76788 22.75H6.8H7.99829L8 22.75L12 22.75H12.75V20.6591V5.18883C12.7441 5.1947 12.7383 5.20058 12.7324 5.20648C12.7262 5.05176 12.7179 4.90597 12.7066 4.76853C12.662 4.2219 12.5676 3.74175 12.3413 3.29754C11.9818 2.59193 11.4081 2.01825 10.7025 1.65873C10.2582 1.43239 9.77811 1.33803 9.23147 1.29336C8.70056 1.24999 8.04495 1.24999 7.23212 1.25H7.23211H7.2H6.8ZM14.25 3.92574V18.5513L19.3612 12.2785C19.3581 12.2783 19.3551 12.278 19.3521 12.2778L19.7188 11.8338L19.7907 11.7467C20.3053 11.1243 20.6574 10.6984 20.8642 10.243C21.3632 9.14398 21.3027 7.8719 20.7017 6.82515C20.4526 6.39148 20.0617 6.00085 19.4905 5.43004L19.4106 5.35019L19.3226 5.26222C18.7015 4.64075 18.2775 4.21651 17.8111 3.95918C16.7041 3.34841 15.3655 3.33727 14.25 3.92574ZM20.8987 12.7661L14.25 20.926V22.75H17.5H17.5266C18.203 22.75 18.7485 22.75 19.1925 22.7197C19.6491 22.6886 20.0528 22.6229 20.4351 22.4646C21.3539 22.0839 22.0839 21.3539 22.4646 20.4351C22.6229 20.0528 22.6886 19.6491 22.7197 19.1925C22.75 18.7485 22.75 18.203 22.75 17.5266V17.5V17L22.75 16.8842V16.8842C22.7503 16.0662 22.7505 15.5081 22.6222 15.0294C22.3639 14.0652 21.7369 13.2583 20.8987 12.7661ZM8 17C8 17.5523 7.55228 18 7 18C6.44772 18 6 17.5523 6 17C6 16.4477 6.44772 16 7 16C7.55228 16 8 16.4477 8 17Z"
        fill="#FFFFFF" />
</svg>
