<svg width="52" height="45" viewBox="0 0 52 45" fill="none" xmlns="http://www.w3.org/2000/svg">
    <path
        d="M0.9375 35.675C0.9375 38.0222 1.82644 40.2732 3.40878 41.9329C4.99112 43.5926 7.13724 44.525 9.375 44.525H43.125C45.3628 44.525 47.5089 43.5926 49.0912 41.9329C50.6736 40.2732 51.5625 38.0222 51.5625 35.675V17.975H0.9375V35.675ZM43.125 26.825H47.3438V35.675H43.125V26.825ZM39.9609 26.825H42.0703V35.675H39.9609V26.825ZM37.8516 26.825H38.9062V35.675H37.8516V26.825ZM35.7422 26.825H36.7969V35.675H35.7422V26.825ZM30.4688 26.825H34.6875V35.675H30.4688V26.825ZM28.3594 26.825H29.4141V35.675H28.3594V26.825ZM25.1953 26.825H27.3047V35.675H25.1953V26.825ZM51.5625 9.12499V11.3375H0.9375V9.12499C0.9375 6.77783 1.82644 4.5268 3.40878 2.8671C4.99112 1.2074 7.13724 0.274994 9.375 0.274994H43.125C45.3628 0.274994 47.5089 1.2074 49.0912 2.8671C50.6736 4.5268 51.5625 6.77783 51.5625 9.12499Z"
        fill="url(#paint0_linear_4_6)" />
    <defs>
        <linearGradient id="paint0_linear_4_6" x1="0.9375" y1="0.274994" x2="52" y2="1.06148e-08"
            gradientUnits="userSpaceOnUse">
            <stop stop-color="#26D926" stop-opacity="0.7" />
            <stop offset="1" stop-color="#26D926" />
        </linearGradient>
    </defs>
</svg>
