<svg width="52" height="54" viewBox="0 0 52 54" fill="none" xmlns="http://www.w3.org/2000/svg">
<path d="M25.75 0.649994C20.7437 0.649994 15.8498 2.20713 11.6871 5.12448C7.52453 8.04183 4.28017 12.1884 2.36432 17.0397C0.448479 21.8911 -0.0528086 27.2294 0.92388 32.3796C1.90057 37.5298 4.31137 42.2606 7.85138 45.9737C11.3914 49.6868 15.9017 52.2154 20.8118 53.2398C25.7219 54.2643 30.8114 53.7385 35.4367 51.729C40.0619 49.7195 44.0152 46.3165 46.7966 41.9504C49.5779 37.5843 51.0625 32.4511 51.0625 27.2C51.0625 20.1585 48.3957 13.4054 43.6486 8.42631C38.9016 3.44721 32.4633 0.649994 25.75 0.649994ZM34.3879 24.9211V28.7819H28.9141L28.1969 30.1205V31.3152H34.4301V35.0212H28.1969V40.2316H22.5859V35.0212H16.2578V31.3152H22.5859V30.1205L21.8793 28.7819H16.3527L16.2578 24.9211H20.793L16.2578 13.925H22.0692L25.75 25.3636L29.5785 13.925H35.2422L30.7071 24.9211H34.3879Z" fill="url(#paint0_linear_4_13)"/>
<defs>
<linearGradient id="paint0_linear_4_13" x1="0.4375" y1="0.649994" x2="51" y2="1" gradientUnits="userSpaceOnUse">
<stop stop-color="#F44725" stop-opacity="0.7"/>
<stop offset="1" stop-color="#F44725"/>
</linearGradient>
</defs>
</svg>
