<svg width="52" height="54" viewBox="0 0 52 54" fill="none" xmlns="http://www.w3.org/2000/svg">
<path d="M26.25 0.649994C21.2437 0.649994 16.3498 2.20713 12.1871 5.12448C8.02453 8.04183 4.78015 12.1884 2.86431 17.0397C0.948468 21.8911 0.447196 27.2294 1.42388 32.3796C2.40057 37.5298 4.81135 42.2606 8.35137 45.9737C11.8914 49.6868 16.4016 52.2154 21.3118 53.2398C26.2219 54.2643 31.3114 53.7385 35.9367 51.729C40.5619 49.7195 44.5152 46.3165 47.2966 41.9504C50.078 37.5843 51.5625 32.4511 51.5625 27.2C51.5625 20.1585 48.8957 13.4054 44.1487 8.42631C39.4016 3.44721 32.9633 0.649994 26.25 0.649994ZM26.25 38.2625L13.5938 24.9875L19.9219 18.35H32.5781L38.9063 24.9875L26.25 38.2625Z" fill="url(#paint0_linear_4_10)"/>
<defs>
<linearGradient id="paint0_linear_4_10" x1="0.9375" y1="0.649994" x2="52" y2="1" gradientUnits="userSpaceOnUse">
<stop stop-color="#F44725" stop-opacity="0.7"/>
<stop offset="1" stop-color="#F44725"/>
</linearGradient>
</defs>
</svg>
