<svg width="51" height="53" viewBox="0 0 51 53" fill="none" xmlns="http://www.w3.org/2000/svg">
<path d="M25.3125 0C18.5992 0 12.1609 2.79722 7.41387 7.77631C2.66686 12.7554 0 19.5085 0 26.55C0 33.5915 2.66686 40.3446 7.41387 45.3237C12.1609 50.3028 18.5992 53.1 25.3125 53.1C32.0258 53.1 38.4641 50.3028 43.2111 45.3237C47.9581 40.3446 50.625 33.5915 50.625 26.55C50.625 19.5085 47.9581 12.7554 43.2111 7.77631C38.4641 2.79722 32.0258 0 25.3125 0ZM25.3125 42.0375C22.3921 42.0375 19.5374 41.1292 17.1092 39.4274C14.681 37.7256 12.7884 35.3068 11.6708 32.4768C10.5533 29.6468 10.2609 26.5328 10.8306 23.5285C11.4003 20.5243 12.8066 17.7646 14.8716 15.5987C16.9366 13.4327 19.5676 11.9577 22.4319 11.3601C25.2961 10.7625 28.265 11.0692 30.9631 12.2414C33.6611 13.4136 35.9672 15.3987 37.5897 17.9456C39.2121 20.4925 40.0781 23.4869 40.0781 26.55C40.0781 30.6575 38.5225 34.5968 35.7534 37.5013C32.9843 40.4058 29.2286 42.0375 25.3125 42.0375ZM18.8473 30.3334H32.4633C32.4994 31.2948 32.35 32.2539 32.0241 33.1533C31.6983 34.0527 31.2026 34.8738 30.5668 35.5674C29.9311 36.2609 29.1684 36.8127 28.3244 37.1897C27.4804 37.5666 26.5726 37.7609 25.6553 37.7609C24.738 37.7609 23.8301 37.5666 22.9862 37.1897C22.1422 36.8127 21.3795 36.2609 20.7437 35.5674C20.108 34.8738 19.6123 34.0527 19.2864 33.1533C18.9606 32.2539 18.8112 31.2948 18.8473 30.3334ZM18.5519 26.3177C18.3158 26.3162 18.0869 26.2317 17.902 26.0775C17.7171 25.9234 17.5869 25.7087 17.5322 25.4677C17.4775 25.2267 17.5015 24.9734 17.6003 24.7485C17.6992 24.5235 17.8672 24.3398 18.0774 24.2269L20.5348 22.9326L17.8242 21.3949C17.5781 21.2482 17.3976 21.0049 17.3224 20.7186C17.2472 20.4323 17.2836 20.1264 17.4234 19.8682C17.5633 19.6101 17.7952 19.4207 18.0682 19.3419C18.3411 19.2631 18.6327 19.3012 18.8789 19.4479L22.4016 21.4613C22.6652 21.6072 22.8848 21.8274 23.0358 22.0971C23.1867 22.3668 23.2629 22.6753 23.2558 22.9879C23.2495 23.2987 23.1628 23.6018 23.0049 23.8648C22.8469 24.1279 22.6238 24.341 22.3594 24.4813L18.9844 26.2071C18.8494 26.2758 18.702 26.3135 18.5519 26.3177ZM32.7586 26.3177C32.5979 26.3184 32.4392 26.2805 32.2945 26.2071L28.9933 24.4813C28.7289 24.341 28.5058 24.1279 28.3479 23.8648C28.19 23.6018 28.1032 23.2987 28.0969 22.9879C28.0899 22.6753 28.1661 22.3668 28.317 22.0971C28.4679 21.8274 28.6875 21.6072 28.9512 21.4613L32.4738 19.4479C32.72 19.3012 33.0116 19.2631 33.2846 19.3419C33.5575 19.4207 33.7895 19.6101 33.9293 19.8682C34.0692 20.1264 34.1055 20.4323 34.0303 20.7186C33.9552 21.0049 33.7747 21.2482 33.5285 21.3949L30.818 22.9326L33.2754 24.2269C33.4856 24.3398 33.6536 24.5235 33.7524 24.7485C33.8513 24.9734 33.8753 25.2267 33.8206 25.4677C33.7659 25.7087 33.6356 25.9234 33.4507 26.0775C33.2658 26.2317 33.037 26.3162 32.8008 26.3177H32.7586Z" fill="url(#paint0_linear_4_14)"/>
<defs>
<linearGradient id="paint0_linear_4_14" x1="0" y1="0" x2="51" y2="0" gradientUnits="userSpaceOnUse">
<stop stop-color="#FFAA00" stop-opacity="0.7"/>
<stop offset="1" stop-color="#FFAA00"/>
</linearGradient>
</defs>
</svg>
