<svg width="52" height="52" viewBox="0 0 52 52" fill="none" xmlns="http://www.w3.org/2000/svg">
<path d="M47.677 20.0338C48.7563 19.0048 49.6204 17.7522 50.2147 16.3551C50.809 14.958 51.1205 13.4468 51.1297 11.917C51.1388 10.3872 50.8453 8.87197 50.2678 7.46717C49.6902 6.06237 48.8412 4.79848 47.7742 3.75538C46.7073 2.71227 45.4457 1.91261 44.0691 1.40694C42.6926 0.90127 41.231 0.700575 39.7767 0.817533C38.3224 0.934491 36.9071 1.36656 35.6201 2.08644C34.3331 2.80632 33.2025 3.79837 32.2996 4.99989C32.0611 5.31385 31.7457 5.55385 31.3871 5.69416C31.0286 5.83447 30.6404 5.86981 30.2641 5.79639C27.2895 5.11785 24.2106 5.11785 21.236 5.79639C20.8597 5.86981 20.4715 5.83447 20.1129 5.69416C19.7543 5.55385 19.4389 5.31385 19.2004 4.99989C18.2976 3.79837 17.1669 2.80632 15.88 2.08644C14.593 1.36656 13.1776 0.934491 11.7234 0.817533C10.2691 0.700575 8.80748 0.90127 7.43091 1.40694C6.05435 1.91261 4.79276 2.71227 3.72583 3.75538C2.65889 4.79848 1.80982 6.06237 1.23228 7.46717C0.654727 8.87197 0.361246 10.3872 0.370385 11.917C0.379525 13.4468 0.691095 14.958 1.28538 16.3551C1.87967 17.7522 2.74375 19.0048 3.82306 20.0338C4.11076 20.3069 4.32109 20.6579 4.43087 21.0483C4.54066 21.4386 4.54564 21.8532 4.44533 22.2463C3.60307 25.3365 3.39105 28.5782 3.82306 31.7601C4.61301 37.5752 7.47381 42.8607 11.8296 46.5524C16.1854 50.2442 21.7127 52.0683 27.2991 51.6575C32.8855 51.2466 38.1162 48.6314 41.9382 44.3382C45.7602 40.0451 47.8899 34.3926 47.8985 28.5188C47.8947 26.3899 47.6108 24.2717 47.0547 22.2242C46.9585 21.8343 46.9657 21.4242 47.0753 21.0382C47.185 20.6522 47.393 20.3049 47.677 20.0338ZM33.9661 28.2201L24.4211 40.2893C24.2799 40.4524 24.0955 40.5677 23.8915 40.6202C23.6875 40.6727 23.4732 40.6601 23.276 40.5841C23.0789 40.508 22.9079 40.3719 22.7849 40.1933C22.662 40.0146 22.5927 39.8015 22.586 39.5813V29.625C22.586 29.3316 22.4748 29.0502 22.277 28.8428C22.0792 28.6353 21.811 28.5188 21.5313 28.5188H18.3672C18.1566 28.5292 17.9479 28.4732 17.7679 28.358C17.5879 28.2428 17.445 28.0737 17.3576 27.8724C17.2702 27.6712 17.2423 27.4471 17.2775 27.229C17.3127 27.011 17.4094 26.809 17.5551 26.6492L27.1 14.58C27.2413 14.4066 27.4302 14.2833 27.6409 14.2269C27.8516 14.1704 28.0738 14.1837 28.2771 14.2649C28.4803 14.346 28.6546 14.4911 28.7762 14.6802C28.8978 14.8693 28.9607 15.0932 28.9563 15.3212V25.2775C28.9563 25.5709 29.0674 25.8522 29.2652 26.0597C29.463 26.2672 29.7313 26.3837 30.011 26.3837H33.1328C33.3364 26.3818 33.5362 26.4418 33.708 26.5564C33.8798 26.671 34.0163 26.8352 34.101 27.0294C34.1858 27.2236 34.2152 27.4393 34.1856 27.6506C34.156 27.8619 34.0688 28.0597 33.9344 28.2201H33.9661Z" fill="url(#paint0_linear_4_11)"/>
<defs>
<linearGradient id="paint0_linear_4_11" x1="0.370178" y1="0.785156" x2="51" y2="1" gradientUnits="userSpaceOnUse">
<stop stop-color="#0DCCF2" stop-opacity="0.7"/>
<stop offset="1" stop-color="#0DCCF2"/>
</linearGradient>
</defs>
</svg>
