<svg width="52" height="45" viewBox="0 0 52 45" fill="none" xmlns="http://www.w3.org/2000/svg">
    <defs>
        <linearGradient id="paint0_linear_4_3" x1="-1.91259e-07" y1="4" x2="51" y2="3.5"
            gradientUnits="userSpaceOnUse">
            <stop stop-color="#0DCCF2" stop-opacity="0.7" />
            <stop offset="1" stop-color="#0DCCF2" />
        </linearGradient>
    </defs>

    <path
        d="M51.0625 9.12499V11.3375H0.4375V9.12499C0.4375 6.77783 1.32645 4.5268 2.90879 2.8671C4.49112 1.2074 6.63724 0.274994 8.875 0.274994H42.625C44.8628 0.274994 47.0089 1.2074 48.5912 2.8671C50.1736 4.5268 51.0625 6.77783 51.0625 9.12499ZM0.4375 17.975H51.0625V35.675C51.0625 38.0222 50.1736 40.2732 48.5912 41.9329C47.0089 43.5926 44.8628 44.525 42.625 44.525H8.875C6.63724 44.525 4.49112 43.5926 2.90879 41.9329C1.32645 40.2732 0.4375 38.0222 0.4375 35.675V17.975ZM25.75 24.6125C25.75 25.1993 25.9722 25.762 26.3678 26.177C26.7634 26.5919 27.2999 26.825 27.8594 26.825H44.7344C45.2938 26.825 45.8303 26.5919 46.2259 26.177C46.6215 25.762 46.8438 25.1993 46.8438 24.6125C46.8438 24.0257 46.6215 23.4629 46.2259 23.048C45.8303 22.6331 45.2938 22.4 44.7344 22.4H27.8594C27.2999 22.4 26.7634 22.6331 26.3678 23.048C25.9722 23.4629 25.75 24.0257 25.75 24.6125Z"
        fill="url(#paint0_linear_4_3)" />
</svg>
