<svg width="24" height="24" viewBox="0 0 24 24" fill="none" xmlns="http://www.w3.org/2000/svg">
    <path fill-rule="evenodd" clip-rule="evenodd"
        d="M13.1331 2.30698C12.3916 2.10184 11.6083 2.10184 10.8668 2.30698C10.4834 2.41305 10.0908 2.61055 9.557 2.97696C9.01537 3.34873 8.37121 3.86347 7.47092 4.5837L5.47092 6.1837C4.33577 7.09182 3.88228 7.46269 3.55894 7.90875C3.26013 8.32096 3.03781 8.78352 2.90259 9.27436C2.75627 9.8055 2.74996 10.3913 2.74996 11.845V17C2.74996 19.3472 4.65275 21.25 6.99996 21.25C7.69031 21.25 8.24996 20.6904 8.24996 20V15.9999C8.24996 13.9289 9.92889 12.2499 12 12.2499C14.071 12.2499 15.75 13.9289 15.75 15.9999V20C15.75 20.6904 16.3096 21.25 17 21.25C19.3472 21.25 21.25 19.3472 21.25 17V11.845C21.25 10.3913 21.2436 9.8055 21.0973 9.27436C20.9621 8.78352 20.7398 8.32096 20.441 7.90875C20.1176 7.46269 19.6641 7.09182 18.529 6.1837L16.529 4.5837C15.6287 3.86346 14.9845 3.34873 14.4429 2.97696C13.9091 2.61055 13.5166 2.41305 13.1331 2.30698ZM10.4668 0.86128C11.4701 0.583736 12.5298 0.583736 13.5331 0.86128C14.1387 1.02882 14.6866 1.32484 15.2918 1.74026C15.884 2.14678 16.5707 2.69615 17.4431 3.39407L17.466 3.41239L19.466 5.01239C19.4963 5.03663 19.5263 5.0606 19.5559 5.0843C20.5727 5.89747 21.1985 6.39797 21.6555 7.02838C22.0597 7.58609 22.3605 8.21189 22.5435 8.87598C22.7502 9.62663 22.7501 10.428 22.75 11.7299C22.75 11.7678 22.75 11.8062 22.75 11.845V17C22.75 20.1756 20.1756 22.75 17 22.75C15.4812 22.75 14.25 21.5188 14.25 20V15.9999C14.25 14.7573 13.2426 13.7499 12 13.7499C10.7573 13.7499 9.74996 14.7573 9.74996 15.9999V20C9.74996 21.5188 8.51874 22.75 6.99996 22.75C3.82432 22.75 1.24996 20.1756 1.24996 17V11.845C1.24996 11.8062 1.24995 11.7678 1.24995 11.7299C1.24978 10.428 1.24967 9.62663 1.45647 8.87598C1.63941 8.21189 1.94019 7.58609 2.34446 7.02838C2.80144 6.39797 3.42724 5.89747 4.44397 5.0843C4.47361 5.0606 4.50357 5.03664 4.53388 5.01239L6.53387 3.4124L6.5568 3.39406C7.42919 2.69614 8.11588 2.14678 8.70813 1.74026C9.31336 1.32484 9.86123 1.02882 10.4668 0.86128Z"
        fill="#000000" />
</svg>
