<svg width="52" height="40" viewBox="0 0 52 40" fill="none" xmlns="http://www.w3.org/2000/svg">
<path d="M49.3012 7.54363L44.7344 11.8801V8.93749C44.7344 6.59033 43.8454 4.33929 42.2631 2.67959C40.6808 1.0199 38.5346 0.0874939 36.2969 0.0874939H8.875C6.63724 0.0874939 4.49112 1.0199 2.90878 2.67959C1.32644 4.33929 0.4375 6.59033 0.4375 8.93749V31.0625C0.4375 33.4097 1.32644 35.6607 2.90878 37.3204C4.49112 38.9801 6.63724 39.9125 8.875 39.9125H36.2969C38.5346 39.9125 40.6808 38.9801 42.2631 37.3204C43.8454 35.6607 44.7344 33.4097 44.7344 31.0625V28.6841L49.3012 33.0206C49.4544 33.1658 49.645 33.2606 49.8492 33.2933C50.0534 33.326 50.2622 33.295 50.4498 33.2043C50.6374 33.1136 50.7955 32.9671 50.9044 32.783C51.0133 32.5989 51.0683 32.3853 51.0625 32.1687V8.36224C51.062 8.14849 51.0025 7.93946 50.8912 7.76043C50.7798 7.5814 50.6214 7.44005 50.4351 7.35345C50.2488 7.26686 50.0425 7.23873 49.8413 7.27248C49.64 7.30623 49.4524 7.40041 49.3012 7.54363ZM15.2031 20C13.9515 20 12.728 19.6107 11.6874 18.8814C10.6467 18.152 9.83566 17.1154 9.3567 15.9026C8.87774 14.6897 8.75243 13.3551 8.9966 12.0676C9.24077 10.78 9.84346 9.59734 10.7285 8.66907C11.6135 7.7408 12.741 7.10865 13.9686 6.85254C15.1961 6.59643 16.4685 6.72787 17.6248 7.23025C18.7811 7.73262 19.7694 8.58337 20.4648 9.6749C21.1601 10.7664 21.5312 12.0497 21.5312 13.3625C21.5312 15.1229 20.8645 16.8111 19.6778 18.0559C18.491 19.3007 16.8814 20 15.2031 20Z" fill="url(#paint0_linear_4_21)"/>
<defs>
<linearGradient id="paint0_linear_4_21" x1="0.4375" y1="0.0874939" x2="51" y2="3.16357e-09" gradientUnits="userSpaceOnUse">
<stop stop-color="#993DF5" stop-opacity="0.7"/>
<stop offset="1" stop-color="#993DF5"/>
</linearGradient>
</defs>
</svg>
