<svg width="44" height="54" viewBox="0 0 44 54" fill="none" xmlns="http://www.w3.org/2000/svg">
<path d="M36.7344 15.7375H30.4062V6.8875C30.4062 5.12713 29.7395 3.43885 28.5528 2.19407C27.366 0.949301 25.7564 0.25 24.0781 0.25H7.20312C5.5248 0.25 3.91521 0.949301 2.72846 2.19407C1.54171 3.43885 0.875 5.12713 0.875 6.8875V46.7125C0.875 48.4729 1.54171 50.1612 2.72846 51.4059C3.91521 52.6507 5.5248 53.35 7.20312 53.35H24.0781C25.7564 53.35 27.366 52.6507 28.5528 51.4059C29.7395 50.1612 30.4062 48.4729 30.4062 46.7125V37.8625H36.7344C38.4127 37.8625 40.0223 37.1632 41.209 35.9184C42.3958 34.6737 43.0625 32.9854 43.0625 31.225V22.375C43.0625 20.6146 42.3958 18.9263 41.209 17.6816C40.0223 16.4368 38.4127 15.7375 36.7344 15.7375ZM15.6406 29.0125C15.0812 29.0125 14.5447 28.7794 14.1491 28.3645C13.7535 27.9495 13.5312 27.3868 13.5312 26.8C13.5312 26.2132 13.7535 25.6504 14.1491 25.2355C14.5447 24.8206 15.0812 24.5875 15.6406 24.5875H17.75V22.375C17.75 21.7882 17.9722 21.2254 18.3678 20.8105C18.7634 20.3956 19.2999 20.1625 19.8594 20.1625C20.4188 20.1625 20.9553 20.3956 21.3509 20.8105C21.7465 21.2254 21.9688 21.7882 21.9688 22.375V24.5875H24.0781C24.6376 24.5875 25.1741 24.8206 25.5697 25.2355C25.9653 25.6504 26.1875 26.2132 26.1875 26.8C26.1875 27.3868 25.9653 27.9495 25.5697 28.3645C25.1741 28.7794 24.6376 29.0125 24.0781 29.0125H21.9688V31.225C21.9688 31.8118 21.7465 32.3745 21.3509 32.7895C20.9553 33.2044 20.4188 33.4375 19.8594 33.4375C19.2999 33.4375 18.7634 33.2044 18.3678 32.7895C17.9722 32.3745 17.75 31.8118 17.75 31.225V29.0125H15.6406ZM26.1875 15.7375H15.6406C13.9623 15.7375 12.3527 16.4368 11.166 17.6816C9.97921 18.9263 9.3125 20.6146 9.3125 22.375V31.225C9.3125 32.9854 9.97921 34.6737 11.166 35.9184C12.3527 37.1632 13.9623 37.8625 15.6406 37.8625H26.1875V46.7125C26.1875 47.2993 25.9653 47.862 25.5697 48.277C25.1741 48.6919 24.6376 48.925 24.0781 48.925H7.20312C6.64368 48.925 6.10715 48.6919 5.71157 48.277C5.31599 47.862 5.09375 47.2993 5.09375 46.7125V6.8875C5.09375 6.30071 5.31599 5.73795 5.71157 5.32302C6.10715 4.9081 6.64368 4.675 7.20312 4.675H8.25781C8.53753 4.675 8.8058 4.79155 9.00359 4.99901C9.20138 5.20647 9.3125 5.48785 9.3125 5.78125C9.3125 6.07465 9.42362 6.35603 9.62141 6.56349C9.8192 6.77095 10.0875 6.8875 10.3672 6.8875H20.9141C21.1938 6.8875 21.462 6.77095 21.6598 6.56349C21.8576 6.35603 21.9688 6.07465 21.9688 5.78125C21.9688 5.48785 22.0799 5.20647 22.2777 4.99901C22.4755 4.79155 22.7437 4.675 23.0234 4.675H24.0781C24.6376 4.675 25.1741 4.9081 25.5697 5.32302C25.9653 5.73795 26.1875 6.30071 26.1875 6.8875V15.7375ZM32.5156 31.225C32.0984 31.225 31.6906 31.0952 31.3437 30.8521C30.9968 30.609 30.7265 30.2635 30.5668 29.8592C30.4072 29.4549 30.3654 29.01 30.4468 28.5809C30.5282 28.1517 30.7291 27.7574 31.0241 27.448C31.3191 27.1386 31.6949 26.9279 32.1041 26.8425C32.5133 26.7571 32.9374 26.801 33.3228 26.9684C33.7083 27.1359 34.0377 27.4195 34.2695 27.7833C34.5013 28.1471 34.625 28.5749 34.625 29.0125C34.625 29.5993 34.4028 30.162 34.0072 30.577C33.6116 30.9919 33.0751 31.225 32.5156 31.225ZM36.7344 26.8C36.3172 26.8 35.9093 26.6702 35.5625 26.4271C35.2156 26.184 34.9452 25.8385 34.7856 25.4342C34.6259 25.0299 34.5841 24.585 34.6655 24.1559C34.7469 23.7267 34.9478 23.3324 35.2428 23.023C35.5378 22.7136 35.9137 22.5029 36.3229 22.4175C36.732 22.3321 37.1562 22.376 37.5416 22.5434C37.927 22.7109 38.2565 22.9945 38.4883 23.3583C38.72 23.7221 38.8438 24.1499 38.8438 24.5875C38.8438 25.1743 38.6215 25.737 38.2259 26.152C37.8303 26.5669 37.2938 26.8 36.7344 26.8Z" fill="url(#paint0_linear_4_24)"/>
<defs>
<linearGradient id="paint0_linear_4_24" x1="0.875" y1="0.25" x2="43" y2="-2.77463e-08" gradientUnits="userSpaceOnUse">
<stop stop-color="#993DF5" stop-opacity="0.7"/>
<stop offset="1" stop-color="#993DF5"/>
</linearGradient>
</defs>
</svg>
