<svg width="52" height="43" viewBox="0 0 52 43" fill="none" xmlns="http://www.w3.org/2000/svg">
<path d="M43.125 7.30001H38.9062V2.87501C38.9062 2.28821 38.684 1.72545 38.2884 1.31053C37.8928 0.895606 37.3563 0.662506 36.7969 0.662506C36.2374 0.662506 35.7009 0.895606 35.3053 1.31053C34.9097 1.72545 34.6875 2.28821 34.6875 2.87501V7.30001H17.8125V2.87501C17.8125 2.28821 17.5903 1.72545 17.1947 1.31053C16.7991 0.895606 16.2626 0.662506 15.7031 0.662506C15.1437 0.662506 14.6072 0.895606 14.2116 1.31053C13.816 1.72545 13.5938 2.28821 13.5938 2.87501V7.30001H9.375C7.13724 7.30001 4.99113 8.23241 3.40879 9.8921C1.82645 11.5518 0.9375 13.8028 0.9375 16.15V33.85C0.9375 36.1972 1.82645 38.4482 3.40879 40.1079C4.99113 41.7676 7.13724 42.7 9.375 42.7H43.125C45.3628 42.7 47.5089 41.7676 49.0912 40.1079C50.6736 38.4482 51.5625 36.1972 51.5625 33.85V16.15C51.5625 13.8028 50.6736 11.5518 49.0912 9.8921C47.5089 8.23241 45.3628 7.30001 43.125 7.30001ZM19.9219 27.2125H17.8125V29.425C17.8125 30.0118 17.5903 30.5746 17.1947 30.9895C16.7991 31.4044 16.2626 31.6375 15.7031 31.6375C15.1437 31.6375 14.6072 31.4044 14.2116 30.9895C13.816 30.5746 13.5938 30.0118 13.5938 29.425V27.2125H11.4844C10.9249 27.2125 10.3884 26.9794 9.99282 26.5645C9.59724 26.1496 9.375 25.5868 9.375 25C9.375 24.4132 9.59724 23.8505 9.99282 23.4355C10.3884 23.0206 10.9249 22.7875 11.4844 22.7875H13.5938V20.575C13.5938 19.9882 13.816 19.4255 14.2116 19.0105C14.6072 18.5956 15.1437 18.3625 15.7031 18.3625C16.2626 18.3625 16.7991 18.5956 17.1947 19.0105C17.5903 19.4255 17.8125 19.9882 17.8125 20.575V22.7875H19.9219C20.4813 22.7875 21.0178 23.0206 21.4134 23.4355C21.809 23.8505 22.0312 24.4132 22.0312 25C22.0312 25.5868 21.809 26.1496 21.4134 26.5645C21.0178 26.9794 20.4813 27.2125 19.9219 27.2125ZM33.6328 31.6375C33.007 31.6375 32.3953 31.4429 31.875 31.0782C31.3546 30.7135 30.9491 30.1952 30.7096 29.5888C30.4701 28.9824 30.4075 28.3151 30.5296 27.6713C30.6516 27.0275 30.953 26.4362 31.3955 25.972C31.838 25.5079 32.4018 25.1918 33.0155 25.0638C33.6293 24.9357 34.2655 25.0014 34.8436 25.2526C35.4218 25.5038 35.916 25.9292 36.2636 26.4749C36.6113 27.0207 36.7969 27.6624 36.7969 28.3188C36.7969 29.1989 36.4635 30.0431 35.8701 30.6655C35.2768 31.2879 34.472 31.6375 33.6328 31.6375ZM39.9609 25C39.3351 25 38.7234 24.8054 38.2031 24.4407C37.6828 24.076 37.2772 23.5577 37.0377 22.9513C36.7982 22.3449 36.7356 21.6776 36.8577 21.0338C36.9798 20.39 37.2811 19.7987 37.7236 19.3345C38.1661 18.8704 38.7299 18.5543 39.3437 18.4263C39.9574 18.2982 40.5936 18.3639 41.1718 18.6151C41.7499 18.8663 42.2441 19.2917 42.5918 19.8374C42.9394 20.3832 43.125 21.0249 43.125 21.6813C43.125 22.5614 42.7916 23.4056 42.1983 24.028C41.6049 24.6504 40.8001 25 39.9609 25Z" fill="url(#paint0_linear_4_16)"/>
<defs>
<linearGradient id="paint0_linear_4_16" x1="0.9375" y1="0.662506" x2="52" y2="1" gradientUnits="userSpaceOnUse">
<stop stop-color="#0DCCF2" stop-opacity="0.7"/>
<stop offset="1" stop-color="#0DCCF2"/>
</linearGradient>
</defs>
</svg>
