<svg width="52" height="54" viewBox="0 0 52 54" fill="none" xmlns="http://www.w3.org/2000/svg">
<path d="M26.25 0.649994C21.2437 0.649994 16.3498 2.20713 12.1871 5.12448C8.02452 8.04183 4.78015 12.1884 2.86431 17.0397C0.948468 21.8911 0.447196 27.2294 1.42388 32.3796C2.40057 37.5298 4.81135 42.2606 8.35137 45.9737C11.8914 49.6868 16.4016 52.2154 21.3118 53.2398C26.2219 54.2643 31.3114 53.7385 35.9367 51.729C40.5619 49.7195 44.5152 46.3165 47.2966 41.9504C50.078 37.5843 51.5625 32.4511 51.5625 27.2C51.5625 20.1585 48.8957 13.4054 44.1487 8.42631C39.4016 3.44721 32.9633 0.649994 26.25 0.649994ZM36.6914 19.0469C36.6044 19.3231 36.4663 19.5786 36.285 19.7987C36.1037 20.0188 35.8828 20.1993 35.635 20.3298C35.3871 20.4603 35.1172 20.5382 34.8406 20.5592C34.564 20.5801 34.2862 20.5437 34.0231 20.4519L30.4688 19.2018V32.7312C30.4703 34.1406 30.0441 35.5138 29.252 36.6521C28.4598 37.7904 27.3428 38.6347 26.0626 39.0628C24.7825 39.4908 23.4057 39.4804 22.1316 39.0329C20.8575 38.5855 19.7522 37.7243 18.9758 36.5741C18.1995 35.4239 17.7923 34.0443 17.8133 32.6352C17.8343 31.226 18.2823 29.8605 19.0926 28.7362C19.9028 27.612 21.0332 26.7875 22.32 26.382C23.6068 25.9765 24.9832 26.0112 26.25 26.4809V16.1375C26.2497 15.787 26.3288 15.4414 26.4808 15.1293C26.6327 14.8171 26.8533 14.5473 27.1241 14.342C27.395 14.1368 27.7085 14.002 28.0388 13.9487C28.3691 13.8954 28.7067 13.9252 29.0238 14.0356L35.352 16.2481C35.6153 16.3394 35.8588 16.4843 36.0687 16.6744C36.2785 16.8646 36.4506 17.0962 36.575 17.3562C36.6994 17.6162 36.7737 17.8993 36.7937 18.1894C36.8137 18.4795 36.7789 18.7709 36.6914 19.0469Z" fill="url(#paint0_linear_4_8)"/>
<defs>
<linearGradient id="paint0_linear_4_8" x1="0.9375" y1="0.649994" x2="52" y2="1" gradientUnits="userSpaceOnUse">
<stop stop-color="#993DF5" stop-opacity="0.7"/>
<stop offset="1" stop-color="#993DF5"/>
</linearGradient>
</defs>
</svg>
