<svg width="52" height="45" viewBox="0 0 52 45" fill="none" xmlns="http://www.w3.org/2000/svg">
<path d="M32.0781 17.975H51.0625V35.675C51.0625 38.0222 50.1736 40.2732 48.5912 41.9329C47.0089 43.5926 44.8628 44.525 42.625 44.525H8.875C6.63724 44.525 4.49112 43.5926 2.90878 41.9329C1.32644 40.2732 0.4375 38.0222 0.4375 35.675V17.975H19.4219V31.25L25.75 26.825L32.0781 31.25V17.975ZM42.625 0.274994H8.875C6.63724 0.274994 4.49112 1.2074 2.90878 2.8671C1.32644 4.5268 0.4375 6.77783 0.4375 9.12499V11.3375H51.0625V9.12499C51.0625 6.77783 50.1736 4.5268 48.5912 2.8671C47.0089 1.2074 44.8628 0.274994 42.625 0.274994Z" fill="url(#paint0_linear_4_5)"/>
<defs>
<linearGradient id="paint0_linear_4_5" x1="0.4375" y1="0.274994" x2="51" y2="4.40627e-08" gradientUnits="userSpaceOnUse">
<stop stop-color="#F44725" stop-opacity="0.7"/>
<stop offset="1" stop-color="#F44725"/>
</linearGradient>
</defs>
</svg>
