<svg width="52" height="54" viewBox="0 0 52 54" fill="none" xmlns="http://www.w3.org/2000/svg">
<path d="M25.75 0.649994C20.7437 0.649994 15.8498 2.20713 11.6871 5.12448C7.52453 8.04183 4.28015 12.1884 2.36431 17.0397C0.448468 21.8911 -0.0528044 27.2294 0.923884 32.3796C1.90057 37.5298 4.31135 42.2606 7.85137 45.9737C11.3914 49.6868 15.9016 52.2154 20.8118 53.2398C25.7219 54.2643 30.8114 53.7385 35.4367 51.729C40.0619 49.7195 44.0152 46.3165 46.7966 41.9504C49.578 37.5843 51.0625 32.4511 51.0625 27.2C51.0625 20.1585 48.3957 13.4054 43.6487 8.42631C38.9016 3.44721 32.4633 0.649994 25.75 0.649994ZM35.7168 37.6541C35.325 38.0655 34.8597 38.3919 34.3476 38.6145C33.8354 38.8372 33.2864 38.9519 32.732 38.9519C32.1776 38.9519 31.6287 38.8372 31.1165 38.6145C30.6044 38.3919 30.1391 38.0655 29.7473 37.6541L25.1594 32.8419C23.7302 33.2413 22.226 33.2396 20.7975 32.837C19.3691 32.4345 18.0667 31.6451 17.0208 30.5481C15.975 29.4511 15.2224 28.085 14.8386 26.5868C14.4548 25.0885 14.4532 23.5108 14.834 22.0117L19.7699 27.2L24.4738 25.8836L25.75 20.9276L20.8246 15.7503C22.2538 15.3509 23.758 15.3525 25.1865 15.7551C26.6149 16.1577 27.9173 16.9471 28.9632 18.0441C30.009 19.1411 30.7616 20.5072 31.1454 22.0054C31.5292 23.5037 31.5308 25.0814 31.15 26.5805L35.7379 31.3927C36.1288 31.8051 36.4383 32.2943 36.6488 32.8322C36.8593 33.3702 36.9666 33.9464 36.9647 34.528C36.9627 35.1095 36.8515 35.6849 36.6374 36.2213C36.4233 36.7577 36.1104 37.2445 35.7168 37.6541Z" fill="url(#paint0_linear_4_9)"/>
<defs>
<linearGradient id="paint0_linear_4_9" x1="0.4375" y1="0.649994" x2="51" y2="1" gradientUnits="userSpaceOnUse">
<stop stop-color="#FFAA00" stop-opacity="0.7"/>
<stop offset="1" stop-color="#FFAA00"/>
</linearGradient>
</defs>
</svg>
