<svg width="52" height="41" viewBox="0 0 52 41" fill="none" xmlns="http://www.w3.org/2000/svg">
<path d="M42.625 0.300003H8.875C6.63724 0.300003 4.49112 1.2324 2.90878 2.8921C1.32644 4.5518 0.4375 6.80284 0.4375 9.15V26.85C0.4375 29.1972 1.32644 31.4482 2.90878 33.1079C4.49112 34.7676 6.63724 35.7 8.875 35.7H19.4219C21.5312 35.7 23.6406 37.9125 25.75 40.125C27.8594 37.9125 29.9688 35.7 32.0781 35.7H42.625C44.8628 35.7 47.0089 34.7676 48.5912 33.1079C50.1736 31.4482 51.0625 29.1972 51.0625 26.85V9.15C51.0625 6.80284 50.1736 4.5518 48.5912 2.8921C47.0089 1.2324 44.8628 0.300003 42.625 0.300003ZM10.9844 11.3625H32.0781C32.6376 11.3625 33.1741 11.5956 33.5697 12.0105C33.9653 12.4255 34.1875 12.9882 34.1875 13.575C34.1875 14.1618 33.9653 14.7246 33.5697 15.1395C33.1741 15.5544 32.6376 15.7875 32.0781 15.7875H10.9844C10.4249 15.7875 9.8884 15.5544 9.49282 15.1395C9.09724 14.7246 8.875 14.1618 8.875 13.575C8.875 12.9882 9.09724 12.4255 9.49282 12.0105C9.8884 11.5956 10.4249 11.3625 10.9844 11.3625ZM40.5156 24.6375H10.9844C10.4249 24.6375 9.8884 24.4044 9.49282 23.9895C9.09724 23.5746 8.875 23.0118 8.875 22.425C8.875 21.8382 9.09724 21.2755 9.49282 20.8605C9.8884 20.4456 10.4249 20.2125 10.9844 20.2125H40.5156C41.0751 20.2125 41.6116 20.4456 42.0072 20.8605C42.4028 21.2755 42.625 21.8382 42.625 22.425C42.625 23.0118 42.4028 23.5746 42.0072 23.9895C41.6116 24.4044 41.0751 24.6375 40.5156 24.6375Z" fill="url(#paint0_linear_4_17)"/>
<defs>
<linearGradient id="paint0_linear_4_17" x1="0.4375" y1="0.300003" x2="51" y2="-3.66511e-08" gradientUnits="userSpaceOnUse">
<stop stop-color="#26D926" stop-opacity="0.7"/>
<stop offset="1" stop-color="#26D926"/>
</linearGradient>
</defs>
</svg>
