<svg width="43" height="54" viewBox="0 0 43 54" fill="none" xmlns="http://www.w3.org/2000/svg">
<path d="M36.6773 27.0876C36.6773 27.5252 36.5536 27.953 36.3219 28.3168C36.0901 28.6807 35.7606 28.9642 35.3752 29.1317C34.9898 29.2992 34.5656 29.343 34.1564 29.2576C33.7473 29.1722 33.3714 28.9615 33.0764 28.6521C32.7814 28.3427 32.5805 27.9484 32.4991 27.5193C32.4177 27.0901 32.4595 26.6452 32.6192 26.2409C32.7788 25.8367 33.0492 25.4911 33.3961 25.248C33.7429 25.0049 34.1508 24.8751 34.568 24.8751C35.1274 24.8751 35.6639 25.1082 36.0595 25.5231C36.4551 25.9381 36.6773 26.5008 36.6773 27.0876ZM42.5625 22.375V31.225C42.5625 32.9854 41.8958 34.6737 40.709 35.9184C39.5223 37.1632 37.9127 37.8625 36.2344 37.8625H29.9062V46.7125C29.9062 48.4729 29.2395 50.1612 28.0528 51.4059C26.866 52.6507 25.2564 53.35 23.5781 53.35H6.70312C5.0248 53.35 3.41521 52.6507 2.22846 51.4059C1.04171 50.1612 0.375 48.4729 0.375 46.7125V6.8875C0.375 5.12713 1.04171 3.43885 2.22846 2.19407C3.41521 0.949301 5.0248 0.25 6.70312 0.25H23.5781C25.2564 0.25 26.866 0.949301 28.0528 2.19407C29.2395 3.43885 29.9062 5.12713 29.9062 6.8875V15.7375H36.2344C37.9127 15.7375 39.5223 16.4368 40.709 17.6816C41.8958 18.9263 42.5625 20.6146 42.5625 22.375ZM25.6875 6.8875C25.6875 6.30071 25.4653 5.73795 25.0697 5.32302C24.6741 4.9081 24.1376 4.675 23.5781 4.675H22.5234C22.2437 4.675 21.9755 4.79155 21.7777 4.99901C21.5799 5.20647 21.4688 5.48785 21.4688 5.78125C21.4688 6.07465 21.3576 6.35603 21.1598 6.56349C20.962 6.77095 20.6938 6.8875 20.4141 6.8875H9.86719C9.58747 6.8875 9.3192 6.77095 9.12141 6.56349C8.92362 6.35603 8.8125 6.07465 8.8125 5.78125C8.8125 5.48785 8.70138 5.20647 8.50359 4.99901C8.3058 4.79155 8.03753 4.675 7.75781 4.675H6.70312C6.14368 4.675 5.60715 4.9081 5.21157 5.32302C4.81599 5.73795 4.59375 6.30071 4.59375 6.8875V46.7125C4.59375 47.2993 4.81599 47.862 5.21157 48.277C5.60715 48.6919 6.14368 48.925 6.70312 48.925H23.5781C24.1376 48.925 24.6741 48.6919 25.0697 48.277C25.4653 47.862 25.6875 47.2993 25.6875 46.7125V37.8625H15.1406C13.4623 37.8625 11.8527 37.1632 10.666 35.9184C9.47921 34.6737 8.8125 32.9854 8.8125 31.225V22.375C8.8125 20.6146 9.47921 18.9263 10.666 17.6816C11.8527 16.4368 13.4623 15.7375 15.1406 15.7375H25.6875V6.8875ZM16.7332 29.0125V30.9595C16.7332 31.4729 16.9277 31.9654 17.2738 32.3284C17.6199 32.6915 18.0894 32.8954 18.5789 32.8954C19.0684 32.8954 19.5379 32.6915 19.884 32.3284C20.2302 31.9654 20.4246 31.4729 20.4246 30.9595V29.0125H22.2809C22.7704 29.0125 23.2398 28.8085 23.586 28.4455C23.9321 28.0824 24.1266 27.59 24.1266 27.0766C24.1266 26.5631 23.9321 26.0707 23.586 25.7076C23.2398 25.3446 22.7704 25.1406 22.2809 25.1406H20.4141V23.1936C20.4141 22.6802 20.2196 22.1878 19.8735 21.8247C19.5273 21.4617 19.0579 21.2577 18.5684 21.2577C18.0788 21.2577 17.6094 21.4617 17.2632 21.8247C16.9171 22.1878 16.7227 22.6802 16.7227 23.1936V25.1406H14.8664C14.3769 25.1406 13.9074 25.3446 13.5613 25.7076C13.2152 26.0707 13.0207 26.5631 13.0207 27.0766C13.0207 27.59 13.2152 28.0824 13.5613 28.4455C13.9074 28.8085 14.3769 29.0125 14.8664 29.0125H16.7332ZM39.8414 27.0766C39.8414 25.9826 39.5321 24.9132 38.9527 24.0036C38.3732 23.094 37.5496 22.385 36.586 21.9663C35.6224 21.5477 34.5621 21.4382 33.5392 21.6516C32.5162 21.865 31.5766 22.3918 30.8391 23.1654C30.1016 23.9389 29.5993 24.9245 29.3959 25.9975C29.1924 27.0704 29.2968 28.1826 29.6959 29.1933C30.0951 30.204 30.771 31.0678 31.6382 31.6756C32.5054 32.2834 33.525 32.6078 34.568 32.6078C35.9647 32.6078 37.3045 32.0266 38.2931 30.9917C39.2818 29.9567 39.8386 28.5527 39.8414 27.0876V27.0766Z" fill="url(#paint0_linear_4_25)"/>
<defs>
<linearGradient id="paint0_linear_4_25" x1="0.375" y1="0.25" x2="43" y2="1.82183e-08" gradientUnits="userSpaceOnUse">
<stop stop-color="#26D926" stop-opacity="0.7"/>
<stop offset="1" stop-color="#26D926"/>
</linearGradient>
</defs>
</svg>
