<svg width="41" height="54" viewBox="0 0 41 54" fill="none" xmlns="http://www.w3.org/2000/svg">
    <path
        d="M32.5156 13.525H30.4062V6.8875C30.4062 5.12713 29.7395 3.43885 28.5528 2.19407C27.366 0.949301 25.7564 0.25 24.0781 0.25H7.20312C5.5248 0.25 3.91522 0.949301 2.72846 2.19407C1.54171 3.43885 0.875 5.12713 0.875 6.8875V46.7125C0.875 48.4729 1.54171 50.1612 2.72846 51.4059C3.91522 52.6507 5.5248 53.35 7.20312 53.35H24.0781C25.7564 53.35 27.366 52.6507 28.5528 51.4059C29.7395 50.1612 30.4062 48.4729 30.4062 46.7125V40.075H32.5156C34.7534 40.075 36.8995 39.1426 38.4818 37.4829C40.0642 35.8232 40.9531 33.5722 40.9531 31.225V22.375C40.9531 20.0278 40.0642 17.7768 38.4818 16.1171C36.8995 14.4574 34.7534 13.525 32.5156 13.525ZM26.1875 46.7125C26.1875 47.2993 25.9653 47.862 25.5697 48.277C25.1741 48.6919 24.6376 48.925 24.0781 48.925H7.20312C6.64368 48.925 6.10716 48.6919 5.71157 48.277C5.31599 47.862 5.09375 47.2993 5.09375 46.7125V6.8875C5.09375 6.30071 5.31599 5.73795 5.71157 5.32302C6.10716 4.9081 6.64368 4.675 7.20312 4.675H8.25781C8.53753 4.675 8.8058 4.79155 9.00359 4.99901C9.20138 5.20647 9.3125 5.48785 9.3125 5.78125C9.3125 6.07465 9.42362 6.35603 9.62141 6.56349C9.8192 6.77095 10.0875 6.8875 10.3672 6.8875H20.9141C21.1938 6.8875 21.462 6.77095 21.6598 6.56349C21.8576 6.35603 21.9688 6.07465 21.9688 5.78125C21.9688 5.48785 22.0799 5.20647 22.2777 4.99901C22.4755 4.79155 22.7437 4.675 23.0234 4.675H24.0781C24.6376 4.675 25.1741 4.9081 25.5697 5.32302C25.9653 5.73795 26.1875 6.30071 26.1875 6.8875V13.525H24.0781C21.8404 13.525 19.6943 14.4574 18.1119 16.1171C16.5296 17.7768 15.6406 20.0278 15.6406 22.375V31.225C15.6406 33.5722 16.5296 35.8232 18.1119 37.4829C19.6943 39.1426 21.8404 40.075 24.0781 40.075H26.1875V46.7125ZM29.8789 33.7804V35.65H26.7148V33.8579C25.3844 33.6712 24.1173 33.1472 23.0234 32.3312L24.7742 29.7979C25.7182 30.5399 26.8545 30.9642 28.0332 31.0148C29.2145 31.0148 29.6891 30.6498 29.6891 29.7979C29.6891 28.0501 23.593 27.8067 23.593 23.9791C23.5759 23.02 23.8849 22.0858 24.4646 21.3439C25.0444 20.602 25.8571 20.1008 26.757 19.9302V17.95H29.9211V19.6979C31.2669 19.9018 32.5177 20.5442 33.4965 21.5343L31.4609 23.6804C30.7973 23.0104 29.9237 22.6171 29.0035 22.5741C27.9488 22.5741 27.4953 22.8286 27.4953 23.6804C27.4953 25.3508 33.5914 25.4282 33.5914 29.4107C33.5703 31.5901 32.3469 33.2384 29.8789 33.7804Z"
        fill="url(#paint0_linear_4_22)" />
    <defs>
        <linearGradient id="paint0_linear_4_22" x1="0.875" y1="0.25" x2="41" y2="1.00071e-08"
            gradientUnits="userSpaceOnUse">
            <stop stop-color="#0DCCF2" stop-opacity="0.7" />
            <stop offset="1" stop-color="#0DCCF2" />
        </linearGradient>
    </defs>
</svg>
