<svg width="24" height="24" viewBox="0 0 24 24" fill="none" xmlns="http://www.w3.org/2000/svg">
    <path fill-rule="evenodd" clip-rule="evenodd"
        d="M12 1.25C8.15377 1.25 4.84221 3.96483 4.08789 7.7364L2.8341 14.0054C2.43138 16.019 3.50028 18.0431 5.3676 18.873C6.04942 19.176 6.74924 19.4298 7.46121 19.6343L7.56497 19.8678C8.34394 21.6205 10.082 22.75 12 22.75C13.918 22.75 15.6561 21.6205 16.4351 19.8678L16.5388 19.6343C17.2508 19.4298 17.9506 19.176 18.6325 18.873C20.4998 18.0431 21.5687 16.019 21.166 14.0054L19.9122 7.7364C19.1578 3.96483 15.8463 1.25 12 1.25ZM15.8893 18.2581C15.8353 18.2662 15.7824 18.2802 15.7316 18.2997C13.2912 18.9283 10.7089 18.9283 8.26845 18.2997C8.21766 18.2802 8.16476 18.2662 8.11072 18.2581C7.3837 18.0623 6.66987 17.8103 5.97681 17.5023C4.74162 16.9533 4.04186 15.6151 4.30497 14.2995L5.55877 8.03057C6.17285 4.96014 8.86879 2.75 12 2.75C15.1313 2.75 17.8272 4.96014 18.4413 8.03057L19.6951 14.2995C19.9582 15.6151 19.2584 16.9533 18.0232 17.5023C17.3302 17.8103 16.6164 18.0623 15.8893 18.2581ZM9.44878 20.0731C11.1375 20.3372 12.8625 20.3372 14.5513 20.0731C13.9242 20.808 12.9973 21.25 12 21.25C11.0027 21.25 10.0758 20.808 9.44878 20.0731Z"
        fill="#000000" />
</svg>
