<svg width="52" height="45" viewBox="0 0 52 45" fill="none" xmlns="http://www.w3.org/2000/svg">
    <defs>
        <linearGradient id="paint0_linear_4_4" x1="0.9375" y1="0.274994" x2="52" y2="-4.42607e-08"
            gradientUnits="userSpaceOnUse">
            <stop stop-color="#FFAA00" stop-opacity="0.7" />
            <stop offset="1" stop-color="#FFAA00" />
        </linearGradient>
    </defs>

    <path
        d="M51.5625 13.55H30.4688C28.231 13.55 26.0849 14.4824 24.5025 16.1421C22.9202 17.8018 22.0312 20.0528 22.0312 22.4C22.0312 24.7472 22.9202 26.9982 24.5025 28.6579C26.0849 30.3176 28.231 31.25 30.4688 31.25H51.5625V35.675C51.5625 38.0222 50.6736 40.2732 49.0912 41.9329C47.5089 43.5926 45.3628 44.525 43.125 44.525H9.375C7.13724 44.525 4.99113 43.5926 3.40879 41.9329C1.82645 40.2732 0.9375 38.0222 0.9375 35.675V9.12499C0.9375 6.77783 1.82645 4.5268 3.40879 2.8671C4.99113 1.2074 7.13724 0.274994 9.375 0.274994H43.125C45.3628 0.274994 47.5089 1.2074 49.0912 2.8671C50.6736 4.5268 51.5625 6.77783 51.5625 9.12499V13.55ZM26.25 22.4C26.25 23.2752 26.4974 24.1307 26.961 24.8584C27.4245 25.5861 28.0834 26.1532 28.8543 26.4882C29.6252 26.8231 30.4734 26.9107 31.2918 26.74C32.1101 26.5692 32.8619 26.1478 33.4519 25.5289C34.0419 24.9101 34.4437 24.1216 34.6064 23.2633C34.7692 22.4049 34.6857 21.5152 34.3664 20.7066C34.0471 19.8981 33.5063 19.207 32.8126 18.7207C32.1188 18.2345 31.3031 17.975 30.4688 17.975C29.3499 17.975 28.2768 18.4412 27.4856 19.271C26.6945 20.1009 26.25 21.2264 26.25 22.4Z"
        fill="url(#paint0_linear_4_4)" />
</svg>
