<svg width="50" height="50" viewBox="0 0 50 50" fill="none" xmlns="http://www.w3.org/2000/svg">
<path d="M49.2293 39.691L46.5399 8.716C46.3498 6.5095 45.3776 4.45803 43.8154 2.96691C42.2532 1.4758 40.2146 0.653513 38.1024 0.662503H11.366C9.25383 0.653513 7.21523 1.4758 5.65302 2.96691C4.09081 4.45803 3.11862 6.5095 2.92854 8.716L0.239082 39.691C0.133328 40.9184 0.273134 42.1554 0.649544 43.3228C1.02595 44.4903 1.63067 45.5623 2.42496 46.4704C3.21926 47.3786 4.18562 48.1026 5.26215 48.5964C6.33868 49.0901 7.50166 49.3425 8.67658 49.3375H40.8235C41.9957 49.3379 43.1552 49.082 44.228 48.5863C45.3007 48.0905 46.2632 47.3658 47.0541 46.4582C47.845 45.5506 48.4468 44.4801 48.8214 43.3149C49.1959 42.1498 49.3348 40.9156 49.2293 39.691ZM24.75 22.7875C21.3934 22.7875 18.1742 21.3889 15.8007 18.8993C13.4272 16.4098 12.0938 13.0333 12.0938 9.5125C12.0938 8.92571 12.316 8.36295 12.7116 7.94803C13.1072 7.5331 13.6437 7.3 14.2031 7.3C14.7626 7.3 15.2991 7.5331 15.6947 7.94803C16.0903 8.36295 16.3125 8.92571 16.3125 9.5125C16.3125 11.8597 17.2015 14.1107 18.7838 15.7704C20.3661 17.4301 22.5123 18.3625 24.75 18.3625C26.9878 18.3625 29.1339 17.4301 30.7162 15.7704C32.2986 14.1107 33.1875 11.8597 33.1875 9.5125C33.1875 8.92571 33.4098 8.36295 33.8053 7.94803C34.2009 7.5331 34.7375 7.3 35.2969 7.3C35.8563 7.3 36.3929 7.5331 36.7884 7.94803C37.184 8.36295 37.4063 8.92571 37.4063 9.5125C37.4063 13.0333 36.0728 16.4098 33.6993 18.8993C31.3258 21.3889 28.1067 22.7875 24.75 22.7875Z" fill="url(#paint0_linear_4_15)"/>
<defs>
<linearGradient id="paint0_linear_4_15" x1="-8.79772e-08" y1="25" x2="49" y2="25" gradientUnits="userSpaceOnUse">
<stop stop-color="#FFAA00" stop-opacity="0.7"/>
<stop offset="1" stop-color="#FFAA00"/>
</linearGradient>
</defs>
</svg>
