<svg width="28" height="28" viewBox="0 0 28 28" fill="none" xmlns="http://www.w3.org/2000/svg">
    <path fill-rule="evenodd" clip-rule="evenodd"
        d="M2.62346 2.67453C2.16757 2.51424 1.66806 2.75388 1.50778 3.20978C1.34749 3.66567 1.58713 4.16518 2.04303 4.32546L2.34777 4.4326C3.12665 4.70644 3.63853 4.88792 4.01518 5.07273C4.36894 5.24631 4.52489 5.38681 4.62763 5.53715C4.73293 5.69125 4.81425 5.90291 4.86014 6.32682C4.90815 6.77039 4.90934 7.34814 4.90934 8.21141V11.3867C4.90934 13.0813 4.92524 14.3032 5.08514 15.2368C5.25585 16.2335 5.59666 16.9471 6.23394 17.6192C6.92678 18.35 7.80505 18.6681 8.85066 18.8164C9.85193 18.9584 11.1234 18.9584 12.6934 18.9583L19.0001 18.9583C19.8654 18.9584 20.5934 18.9584 21.1826 18.8863C21.8076 18.8098 22.3776 18.6426 22.8752 18.2371C23.3728 17.8316 23.6516 17.3071 23.8527 16.7104C24.0423 16.1479 24.1892 15.4349 24.3639 14.5874L24.9576 11.7065L24.9587 11.7011L24.9709 11.6401C25.163 10.6778 25.3246 9.86823 25.3648 9.2171C25.407 8.5332 25.3292 7.85886 24.8837 7.27974C24.6096 6.92341 24.2242 6.72169 23.8736 6.59851C23.516 6.47287 23.1117 6.40018 22.7037 6.35457C21.9021 6.26496 20.9283 6.26498 19.9733 6.26499L6.61244 6.26499C6.60861 6.22212 6.60446 6.17995 6.59997 6.13849C6.53729 5.55938 6.40147 5.03121 6.07249 4.5498C5.74095 4.06462 5.30012 3.7539 4.78605 3.50166C4.30528 3.26576 3.69438 3.05101 2.9751 2.79815L2.62346 2.67453ZM6.65933 8.01499H19.9369C20.936 8.01499 21.8153 8.01616 22.5093 8.09374C22.8541 8.13228 23.1121 8.18583 23.2935 8.24955C23.4417 8.30163 23.4918 8.34416 23.4991 8.35031C23.4994 8.35056 23.4989 8.35018 23.4991 8.35031C23.5706 8.44528 23.6485 8.6176 23.6182 9.1093C23.5862 9.62679 23.4503 10.3178 23.2431 11.356L23.2426 11.3586L22.6606 14.1821C22.4724 15.0954 22.3457 15.7025 22.1944 16.1515C22.0507 16.5778 21.9158 16.7614 21.7697 16.8805C21.6236 16.9995 21.4165 17.0946 20.97 17.1492C20.4997 17.2068 19.8795 17.2083 18.947 17.2083H12.7603C11.1074 17.2083 9.96048 17.2063 9.09636 17.0837C8.26242 16.9655 7.82186 16.7505 7.50389 16.4152C7.13037 16.0212 6.9289 15.6354 6.81002 14.9413C6.68033 14.1841 6.65934 13.1239 6.65934 11.3867L6.65933 8.01499Z"
        fill="#000000" />
    <path fill-rule="evenodd" clip-rule="evenodd"
        d="M8.74991 25.375C7.30017 25.375 6.12491 24.1997 6.12491 22.75C6.12491 21.3002 7.30017 20.125 8.74991 20.125C10.1997 20.125 11.3749 21.3002 11.3749 22.75C11.3749 24.1997 10.1997 25.375 8.74991 25.375ZM7.87491 22.75C7.87491 23.2332 8.26666 23.625 8.74991 23.625C9.23316 23.625 9.62491 23.2332 9.62491 22.75C9.62491 22.2667 9.23316 21.875 8.74991 21.875C8.26666 21.875 7.87491 22.2667 7.87491 22.75Z"
        fill="#000000" />
    <path fill-rule="evenodd" clip-rule="evenodd"
        d="M19.2499 25.3751C17.8002 25.3751 16.6249 24.1998 16.6249 22.7501C16.6249 21.3003 17.8002 20.1251 19.2499 20.1251C20.6997 20.1251 21.8749 21.3003 21.8749 22.7501C21.8749 24.1998 20.6997 25.3751 19.2499 25.3751ZM18.3749 22.7501C18.3749 23.2333 18.7667 23.6251 19.2499 23.6251C19.7332 23.6251 20.1249 23.2333 20.1249 22.7501C20.1249 22.2668 19.7332 21.8751 19.2499 21.8751C18.7667 21.8751 18.3749 22.2668 18.3749 22.7501Z"
        fill="#000000" />
</svg>
