<svg width="47" height="50" viewBox="0 0 47 50" fill="none" xmlns="http://www.w3.org/2000/svg">
<path d="M40.125 31.6375H39.0703C40.9677 28.6373 42.054 25.1537 42.2138 21.5574C42.3736 17.961 41.6008 14.3865 39.9777 11.2142C38.3545 8.04198 35.9418 5.39064 32.9962 3.54234C30.0506 1.69405 26.6824 0.717957 23.25 0.717957C19.8176 0.717957 16.4494 1.69405 13.5038 3.54234C10.5582 5.39064 8.14547 8.04198 6.52235 11.2142C4.89923 14.3865 4.12643 17.961 4.28621 21.5574C4.44598 25.1537 5.53234 28.6373 7.42969 31.6375H6.375C4.69668 31.6375 3.08709 32.3368 1.90034 33.5816C0.713581 34.8264 0.046875 36.5146 0.046875 38.275V42.7C0.046875 44.4604 0.713581 46.1487 1.90034 47.3934C3.08709 48.6382 4.69668 49.3375 6.375 49.3375H40.125C41.8033 49.3375 43.4129 48.6382 44.5997 47.3934C45.7864 46.1487 46.4531 44.4604 46.4531 42.7V38.275C46.4531 36.5146 45.7864 34.8264 44.5997 33.5816C43.4129 32.3368 41.8033 31.6375 40.125 31.6375ZM23.25 16.15C24.0844 16.15 24.9 16.4095 25.5938 16.8957C26.2876 17.382 26.8283 18.0731 27.1476 18.8816C27.4669 19.6902 27.5505 20.5799 27.3877 21.4383C27.2249 22.2967 26.8231 23.0851 26.2331 23.704C25.6431 24.3228 24.8914 24.7442 24.073 24.915C23.2547 25.0857 22.4064 24.9981 21.6356 24.6632C20.8647 24.3282 20.2058 23.7611 19.7422 23.0334C19.2787 22.3057 19.0312 21.4502 19.0312 20.575C19.0312 19.4014 19.4757 18.2759 20.2669 17.4461C21.0581 16.6162 22.1311 16.15 23.25 16.15ZM42.2344 42.8106C42.2344 43.3681 42.0232 43.9027 41.6474 44.2969C41.2716 44.6911 40.7619 44.9125 40.2305 44.9125H6.26952C5.73806 44.9125 5.22837 44.6911 4.85256 44.2969C4.47676 43.9027 4.26562 43.3681 4.26562 42.8106V42.5894C4.26562 42.3134 4.31745 42.04 4.41816 41.785C4.51886 41.53 4.66648 41.2983 4.85256 41.1031C5.03864 40.908 5.25954 40.7531 5.50267 40.6475C5.74579 40.5419 6.00637 40.4875 6.26952 40.4875H40.2305C40.4936 40.4875 40.7542 40.5419 40.9973 40.6475C41.2405 40.7531 41.4614 40.908 41.6474 41.1031C41.8335 41.2983 41.9811 41.53 42.0818 41.785C42.1825 42.04 42.2344 42.3134 42.2344 42.5894V42.8106Z" fill="url(#paint0_linear_4_18)"/>
<defs>
<linearGradient id="paint0_linear_4_18" x1="0.046875" y1="0.717957" x2="46" y2="1" gradientUnits="userSpaceOnUse">
<stop stop-color="#993DF5" stop-opacity="0.7"/>
<stop offset="1" stop-color="#993DF5"/>
</linearGradient>
</defs>
</svg>
