<svg width="47" height="49" viewBox="0 0 47 49" fill="none" xmlns="http://www.w3.org/2000/svg">
<path d="M37.9688 0H8.4375C6.19974 0 4.05362 0.932401 2.47128 2.5921C0.888942 4.25179 0 6.50283 0 8.85V39.825C0 42.1722 0.888942 44.4232 2.47128 46.0829C4.05362 47.7426 6.19974 48.675 8.4375 48.675H37.9688C40.2065 48.675 42.3526 47.7426 43.935 46.0829C45.5173 44.4232 46.4062 42.1722 46.4062 39.825V8.85C46.4062 6.50283 45.5173 4.25179 43.935 2.5921C42.3526 0.932401 40.2065 0 37.9688 0ZM10.5469 42.0375C9.71249 42.0375 8.89682 41.778 8.20305 41.2918C7.50928 40.8055 6.96856 40.1144 6.64925 39.3059C6.32994 38.4973 6.24642 37.6076 6.4092 36.7492C6.57198 35.8909 6.97376 35.1024 7.56377 34.4835C8.15377 33.8647 8.90548 33.4433 9.72383 33.2725C10.5422 33.1018 11.3904 33.1894 12.1613 33.5243C12.9322 33.8593 13.5911 34.4264 14.0546 35.1541C14.5182 35.8818 14.7656 36.7373 14.7656 37.6125C14.7656 38.7861 14.3212 39.9116 13.53 40.7414C12.7388 41.5713 11.6658 42.0375 10.5469 42.0375ZM21.0938 39.825C20.5343 39.825 19.9978 39.5919 19.6022 39.177C19.2066 38.762 18.9844 38.1993 18.9844 37.6125C18.9844 35.2653 18.0954 33.0143 16.5131 31.3546C14.9308 29.6949 12.7846 28.7625 10.5469 28.7625C9.98743 28.7625 9.4509 28.5294 9.05532 28.1145C8.65974 27.6995 8.4375 27.1368 8.4375 26.55C8.4375 25.9632 8.65974 25.4004 9.05532 24.9855C9.4509 24.5706 9.98743 24.3375 10.5469 24.3375C13.9035 24.3375 17.1227 25.7361 19.4962 28.2257C21.8697 30.7152 23.2031 34.0917 23.2031 37.6125C23.2031 38.1993 22.9809 38.762 22.5853 39.177C22.1897 39.5919 21.6532 39.825 21.0938 39.825ZM29.5312 39.825C28.9718 39.825 28.4353 39.5919 28.0397 39.177C27.6441 38.762 27.4219 38.1993 27.4219 37.6125C27.4219 32.9182 25.644 28.4161 22.4793 25.0967C19.3146 21.7773 15.0224 19.9125 10.5469 19.9125C9.98743 19.9125 9.4509 19.6794 9.05532 19.2645C8.65974 18.8495 8.4375 18.2868 8.4375 17.7C8.4375 17.1132 8.65974 16.5504 9.05532 16.1355C9.4509 15.7206 9.98743 15.4875 10.5469 15.4875C16.1413 15.4875 21.5066 17.8185 25.4624 21.9678C29.4183 26.117 31.6406 31.7446 31.6406 37.6125C31.6406 38.1993 31.4184 38.762 31.0228 39.177C30.6272 39.5919 30.0907 39.825 29.5312 39.825Z" fill="url(#paint0_linear_4_26)"/>
<defs>
<linearGradient id="paint0_linear_4_26" x1="0" y1="0" x2="46" y2="0" gradientUnits="userSpaceOnUse">
<stop stop-color="#F44725" stop-opacity="0.7"/>
<stop offset="1" stop-color="#F44725"/>
</linearGradient>
</defs>
</svg>
