<svg width="41" height="54" viewBox="0 0 41 54" fill="none" xmlns="http://www.w3.org/2000/svg">
<path d="M32.0156 13.525H29.9062V6.8875C29.9062 5.12713 29.2395 3.43885 28.0528 2.19407C26.866 0.949301 25.2564 0.25 23.5781 0.25H6.70312C5.0248 0.25 3.41522 0.949301 2.22847 2.19407C1.04171 3.43885 0.375 5.12713 0.375 6.8875V46.7125C0.375 48.4729 1.04171 50.1612 2.22847 51.4059C3.41522 52.6507 5.0248 53.35 6.70312 53.35H23.5781C25.2564 53.35 26.866 52.6507 28.0528 51.4059C29.2395 50.1612 29.9062 48.4729 29.9062 46.7125V40.075H32.0156C34.2534 40.075 36.3995 39.1426 37.9818 37.4829C39.5642 35.8232 40.4531 33.5722 40.4531 31.225V22.375C40.4531 20.0278 39.5642 17.7768 37.9818 16.1171C36.3995 14.4574 34.2534 13.525 32.0156 13.525ZM25.6875 13.525H23.5781C21.3404 13.525 19.1943 14.4574 17.6119 16.1171C16.0296 17.7768 15.1406 20.0278 15.1406 22.375V31.225C15.1406 33.5722 16.0296 35.8232 17.6119 37.4829C19.1943 39.1426 21.3404 40.075 23.5781 40.075H25.6875V46.7125C25.6875 47.2993 25.4653 47.862 25.0697 48.277C24.6741 48.6919 24.1376 48.925 23.5781 48.925H6.70312C6.14368 48.925 5.60715 48.6919 5.21157 48.277C4.81599 47.862 4.59375 47.2993 4.59375 46.7125V6.8875C4.59375 6.30071 4.81599 5.73795 5.21157 5.32302C5.60715 4.9081 6.14368 4.675 6.70312 4.675H7.75781C8.03753 4.675 8.3058 4.79155 8.50359 4.99901C8.70138 5.20647 8.8125 5.48785 8.8125 5.78125C8.8125 6.07465 8.92362 6.35603 9.12141 6.56349C9.3192 6.77095 9.58747 6.8875 9.86719 6.8875H20.4141C20.6938 6.8875 20.962 6.77095 21.1598 6.56349C21.3576 6.35603 21.4688 6.07465 21.4688 5.78125C21.4688 5.48785 21.5799 5.20647 21.7777 4.99901C21.9755 4.79155 22.2437 4.675 22.5234 4.675H23.5781C24.1376 4.675 24.6741 4.9081 25.0697 5.32302C25.4653 5.73795 25.6875 6.30071 25.6875 6.8875V13.525ZM24.6328 28.4594V31.7781C24.6328 32.2182 24.4661 32.6403 24.1694 32.9515C23.8728 33.2627 23.4704 33.4375 23.0508 33.4375C22.6312 33.4375 22.2288 33.2627 21.9321 32.9515C21.6354 32.6403 21.4688 32.2182 21.4688 31.7781V28.4594C21.4687 28.0193 21.6354 27.5972 21.9321 27.286C22.2288 26.9748 22.6312 26.8 23.0508 26.8C23.4704 26.8 23.8728 26.9748 24.1694 27.286C24.4661 27.5972 24.6328 28.0193 24.6328 28.4594ZM29.3789 31.7781C29.3789 32.2182 29.2122 32.6403 28.9155 32.9515C28.6189 33.2627 28.2165 33.4375 27.7969 33.4375C27.3773 33.4375 26.9749 33.2627 26.6782 32.9515C26.3815 32.6403 26.2148 32.2182 26.2148 31.7781V25.1406C26.2148 24.7005 26.3815 24.2785 26.6782 23.9673C26.9749 23.6561 27.3773 23.4812 27.7969 23.4812C28.2165 23.4812 28.6189 23.6561 28.9155 23.9673C29.2122 24.2785 29.3789 24.7005 29.3789 25.1406V31.7781ZM34.125 31.7781C34.125 32.2182 33.9583 32.6403 33.6616 32.9515C33.3649 33.2627 32.9625 33.4375 32.543 33.4375C32.1234 33.4375 31.721 33.2627 31.4243 32.9515C31.1276 32.6403 30.9609 32.2182 30.9609 31.7781V21.8219C30.9609 21.3818 31.1276 20.9597 31.4243 20.6485C31.721 20.3373 32.1234 20.1625 32.543 20.1625C32.9625 20.1625 33.3649 20.3373 33.6616 20.6485C33.9583 20.9597 34.125 21.3818 34.125 21.8219V31.7781Z" fill="url(#paint0_linear_4_23)"/>
<defs>
<linearGradient id="paint0_linear_4_23" x1="0.375" y1="0.25" x2="40" y2="1.02559e-08" gradientUnits="userSpaceOnUse">
<stop stop-color="#0DCCF2" stop-opacity="0.7"/>
<stop offset="1" stop-color="#0DCCF2"/>
</linearGradient>
</defs>
</svg>
