<svg width="47" height="49" viewBox="0 0 47 49" fill="none" xmlns="http://www.w3.org/2000/svg">
<path d="M37.9688 0H8.4375C6.19974 0 4.05362 0.932401 2.47128 2.5921C0.888942 4.25179 0 6.50283 0 8.85V39.825C0 42.1722 0.888942 44.4232 2.47128 46.0829C4.05362 47.7426 6.19974 48.675 8.4375 48.675H37.9688C40.2065 48.675 42.3526 47.7426 43.935 46.0829C45.5173 44.4232 46.4062 42.1722 46.4062 39.825V8.85C46.4062 6.50283 45.5173 4.25179 43.935 2.5921C42.3526 0.932401 40.2065 0 37.9688 0ZM8.4375 17.7C8.4375 16.8248 8.68494 15.9693 9.1485 15.2416C9.61206 14.5139 10.2709 13.9467 11.0418 13.6118C11.8127 13.2769 12.6609 13.1893 13.4793 13.36C14.2976 13.5308 15.0494 13.9522 15.6394 14.571C16.2294 15.1899 16.6312 15.9784 16.794 16.8367C16.9567 17.6951 16.8732 18.5848 16.5538 19.3934C16.2345 20.2019 15.6938 20.893 15.0001 21.3792C14.3063 21.8655 13.4906 22.125 12.6562 22.125C11.5374 22.125 10.4643 21.6588 9.67314 20.8289C8.88197 19.9991 8.4375 18.8736 8.4375 17.7ZM39.1711 42.0375H7.23514C6.3703 42.0375 6.07498 41.429 6.57068 40.6768L13.5422 30.2449C13.6356 30.0798 13.7683 29.943 13.9274 29.8481C14.0864 29.7531 14.2662 29.7031 14.4492 29.7031C14.6322 29.7031 14.8121 29.7531 14.9711 29.8481C15.1301 29.943 15.2629 30.0798 15.3562 30.2449L19.1426 35.9089L26.9578 24.3375C27.0505 24.1699 27.1836 24.0307 27.3437 23.934C27.5038 23.8372 27.6853 23.7863 27.8701 23.7863C28.0549 23.7863 28.2364 23.8372 28.3965 23.934C28.5567 24.0307 28.6897 24.1699 28.7824 24.3375L39.8356 40.6768C40.3313 41.429 40.0781 42.0375 39.1711 42.0375Z" fill="url(#paint0_linear_4_28)"/>
<defs>
<linearGradient id="paint0_linear_4_28" x1="0" y1="24.3375" x2="46.4062" y2="24.3375" gradientUnits="userSpaceOnUse">
<stop stop-color="white" stop-opacity="0.5"/>
<stop offset="1" stop-color="white" stop-opacity="0.7"/>
</linearGradient>
</defs>
</svg>
