<svg width="45" height="50" viewBox="0 0 45 50" fill="none" xmlns="http://www.w3.org/2000/svg">
<path d="M40.2344 9.18063L26.8398 4.06976H26.7449C26.1991 3.042 25.4026 2.18487 24.4371 1.58616C23.4715 0.987462 22.3716 0.668697 21.25 0.662506H6.48438C4.80605 0.662506 3.19646 1.36181 2.00971 2.60658C0.822956 3.85135 0.15625 5.53963 0.15625 7.30001V36.0625C0.15625 37.8229 0.822956 39.5112 2.00971 40.7559C3.19646 42.0007 4.80605 42.7 6.48438 42.7H11.1566C11.7169 43.205 12.3602 43.5987 13.0551 43.8616L26.4496 48.9724C28.0259 49.5748 29.7656 49.4959 31.2865 48.7533C32.8074 48.0107 33.9849 46.665 34.5602 45.0121L44.0523 17.7098C44.3389 16.8871 44.4673 16.013 44.4303 15.138C44.3933 14.2629 44.1915 13.4042 43.8366 12.6114C43.4816 11.8185 42.9806 11.1072 42.3624 10.5184C41.7441 9.92954 41.0209 9.47489 40.2344 9.18063ZM21.25 26.8143C20.9533 27.4025 20.5436 27.9198 20.0466 28.3335C19.5497 28.7472 18.9763 29.0483 18.3628 29.2178C17.7493 29.3872 17.1089 29.4214 16.4821 29.318C15.8554 29.2147 15.2559 28.9762 14.7215 28.6174L15.6813 32.0026C15.7057 32.0839 15.7119 32.1701 15.6993 32.2544C15.6867 32.3386 15.6557 32.4187 15.6087 32.4883C15.5618 32.558 15.5001 32.6153 15.4285 32.6557C15.3569 32.6962 15.2774 32.7187 15.1961 32.7216H12.7281C12.6461 32.7211 12.5653 32.7 12.4925 32.6602C12.4197 32.6204 12.357 32.563 12.3096 32.4927C12.2622 32.4224 12.2314 32.3413 12.2198 32.2561C12.2082 32.1709 12.2162 32.0839 12.243 32.0026L13.1922 28.6174C12.6578 28.9762 12.0583 29.2147 11.4315 29.318C10.8048 29.4214 10.1644 29.3872 9.55088 29.2178C8.93735 29.0483 8.36396 28.7472 7.86701 28.3335C7.37006 27.9198 6.96034 27.4025 6.66369 26.8143C6.15024 25.7963 5.96126 24.6326 6.1245 23.4938C6.28774 22.355 6.79459 21.3011 7.5707 20.4865L13.3609 14.1698C13.4323 14.0892 13.5188 14.025 13.615 13.9812C13.7112 13.9374 13.815 13.915 13.9199 13.9154H14.0149C14.1135 13.912 14.2117 13.931 14.3027 13.9711C14.3937 14.0112 14.4754 14.0714 14.5422 14.1477L20.343 20.4754C21.1259 21.288 21.6372 22.3443 21.8007 23.4868C21.9642 24.6292 21.771 25.7964 21.25 26.8143ZM39.359 17.3779L30.7844 42.0805C30.4967 42.9056 29.9088 43.5775 29.1496 43.9487C28.3904 44.3199 27.5219 44.3601 26.7344 44.0607L22.6527 42.5119C24.0479 42.1793 25.2945 41.3605 26.189 40.1892C27.0835 39.0179 27.5732 37.5632 27.5781 36.0625V9.34657L37.4817 13.1189C37.8724 13.2682 38.2313 13.4969 38.5377 13.7919C38.8441 14.0869 39.0921 14.4423 39.2674 14.8379C39.4428 15.2334 39.542 15.6614 39.5596 16.0972C39.5771 16.5331 39.5125 16.9683 39.3695 17.3779H39.359Z" fill="url(#paint0_linear_4_20)"/>
<defs>
<linearGradient id="paint0_linear_4_20" x1="0.15625" y1="0.662506" x2="44" y2="1" gradientUnits="userSpaceOnUse">
<stop stop-color="#993DF5" stop-opacity="0.7"/>
<stop offset="1" stop-color="#993DF5"/>
</linearGradient>
</defs>
</svg>
