<svg width="52" height="54" viewBox="0 0 52 54" fill="none" xmlns="http://www.w3.org/2000/svg">
<path d="M26.25 0.649994C21.2437 0.649994 16.3498 2.20713 12.1871 5.12448C8.02453 8.04183 4.78017 12.1884 2.86432 17.0397C0.948479 21.8911 0.447191 27.2294 1.42388 32.3796C2.40057 37.5298 4.81137 42.2606 8.35138 45.9737C11.8914 49.6868 16.4017 52.2154 21.3118 53.2398C26.2219 54.2643 31.3114 53.7385 35.9367 51.729C40.5619 49.7195 44.5152 46.3165 47.2966 41.9504C50.0779 37.5843 51.5625 32.4511 51.5625 27.2C51.5625 20.1585 48.8957 13.4054 44.1486 8.42631C39.4016 3.44721 32.9633 0.649994 26.25 0.649994ZM26.25 40.475C23.471 40.4751 20.8042 39.3248 18.8293 37.2741C16.8544 35.2233 15.7309 32.4379 15.7031 29.5231C15.7009 26.6982 16.749 23.9837 18.6246 21.9564C19.9219 25.8393 22.0313 27.2 25.1953 27.2C25.1953 27.2 21.6516 23.8812 22.0313 19.4562C22.0216 18.2261 22.3883 17.0251 23.0774 16.0295C23.7664 15.034 24.7416 14.2964 25.8598 13.925C25.3219 17.4539 29.8254 18.6929 29.8254 18.6929C35.4996 21.3147 36.818 24.7331 36.818 29.5231C36.7901 32.4417 35.6638 35.2305 33.6843 37.2819C31.7048 39.3332 29.0327 40.481 26.25 40.475Z" fill="url(#paint0_linear_4_12)"/>
<defs>
<linearGradient id="paint0_linear_4_12" x1="0.9375" y1="0.649994" x2="52" y2="1" gradientUnits="userSpaceOnUse">
<stop stop-color="#F44725" stop-opacity="0.7"/>
<stop offset="1" stop-color="#F44725"/>
</linearGradient>
</defs>
</svg>
