<svg width="52" height="45" viewBox="0 0 52 45" fill="none" xmlns="http://www.w3.org/2000/svg">
<path d="M42.625 9.3H31.382L35.759 4.13382C35.9432 3.9159 36.0847 3.66207 36.1754 3.38681C36.2661 3.11154 36.3042 2.82023 36.2875 2.52952C36.2709 2.23881 36.1998 1.95439 36.0783 1.69249C35.9569 1.43059 35.7875 1.19634 35.5797 1.00313C35.3719 0.809911 35.1299 0.661506 34.8675 0.566389C34.6051 0.471273 34.3273 0.431306 34.0502 0.448769C33.773 0.466232 33.5019 0.540792 33.2522 0.668176C33.0025 0.79556 32.7791 0.973275 32.5949 1.19119L25.75 9.3L18.884 1.20224C18.6998 0.984331 18.4764 0.806617 18.2268 0.679232C17.9771 0.551848 17.7059 0.477289 17.4287 0.459826C17.1516 0.442362 16.8738 0.482346 16.6114 0.577463C16.349 0.672579 16.107 0.820967 15.8992 1.01418C15.6915 1.2074 15.522 1.44165 15.4006 1.70355C15.2791 1.96545 15.2081 2.24987 15.1914 2.54058C15.1748 2.83129 15.2129 3.1226 15.3035 3.39786C15.3942 3.67313 15.5357 3.92696 15.7199 4.14487L20.0969 9.31106H8.875C6.63724 9.31106 4.49112 10.2435 2.90878 11.9032C1.32644 13.5629 0.4375 15.8139 0.4375 18.1611V35.8611C0.4375 38.2082 1.32644 40.4593 2.90878 42.119C4.49112 43.7787 6.63724 44.7111 8.875 44.7111H42.625C44.8628 44.7111 47.0089 43.7787 48.5912 42.119C50.1736 40.4593 51.0625 38.2082 51.0625 35.8611V18.15C51.0625 15.8028 50.1736 13.5518 48.5912 11.8921C47.0089 10.2324 44.8628 9.3 42.625 9.3ZM31.9199 29.0466L21.5312 34.5004C21.1983 34.676 20.8281 34.7593 20.4559 34.7424C20.0836 34.7254 19.7216 34.6088 19.4045 34.4037C19.0873 34.1985 18.8255 33.9116 18.6439 33.5703C18.4623 33.229 18.3671 32.8447 18.3672 32.4538V21.5462C18.3671 21.1554 18.4623 20.771 18.6439 20.4297C18.8255 20.0884 19.0873 19.8015 19.4045 19.5963C19.7216 19.3912 20.0836 19.2746 20.4559 19.2577C20.8281 19.2407 21.1983 19.324 21.5312 19.4996L31.9199 24.9534C32.2818 25.1439 32.5859 25.4362 32.7985 25.7977C33.0111 26.1591 33.1237 26.5753 33.1237 27C33.1237 27.4247 33.0111 27.8409 32.7985 28.2023C32.5859 28.5638 32.2818 28.8561 31.9199 29.0466Z" fill="url(#paint0_linear_4_19)"/>
<defs>
<linearGradient id="paint0_linear_4_19" x1="0.4375" y1="0.444778" x2="51" y2="-1.33683e-08" gradientUnits="userSpaceOnUse">
<stop stop-color="#0DCCF2" stop-opacity="0.7"/>
<stop offset="1" stop-color="#0DCCF2"/>
</linearGradient>
</defs>
</svg>
