<svg width="52" height="54" viewBox="0 0 52 54" fill="none" xmlns="http://www.w3.org/2000/svg">
<path d="M25.75 0.649994C20.7437 0.649994 15.8498 2.20713 11.6871 5.12448C7.52452 8.04183 4.28015 12.1884 2.36431 17.0397C0.448468 21.8911 -0.0528044 27.2294 0.923884 32.3796C1.90057 37.5298 4.31135 42.2606 7.85137 45.9737C11.3914 49.6868 15.9016 52.2154 20.8118 53.2398C25.7219 54.2643 30.8114 53.7385 35.4367 51.729C40.0619 49.7195 44.0152 46.3165 46.7966 41.9504C49.578 37.5843 51.0625 32.4511 51.0625 27.2C51.0625 20.1585 48.3957 13.4054 43.6487 8.42631C38.9016 3.44721 32.4633 0.649994 25.75 0.649994ZM36.9613 30.1647L21.8899 38.0744C21.4078 38.3269 20.8722 38.446 20.334 38.4205C19.7957 38.3951 19.2726 38.2258 18.8141 37.9289C18.3557 37.632 17.9771 37.2172 17.7144 36.7238C17.4516 36.2304 17.3132 35.6748 17.3125 35.1097V19.2903C17.3132 18.7252 17.4516 18.1696 17.7144 17.6762C17.9771 17.1828 18.3557 16.768 18.8141 16.4711C19.2726 16.1742 19.7957 16.0049 20.334 15.9795C20.8722 15.954 21.4078 16.0731 21.8899 16.3256L36.9613 24.2352C37.4851 24.5116 37.9253 24.9352 38.233 25.4587C38.5406 25.9822 38.7035 26.585 38.7035 27.2C38.7035 27.815 38.5406 28.4178 38.233 28.9413C37.9253 29.4648 37.4851 29.8884 36.9613 30.1647Z" fill="url(#paint0_linear_4_7)"/>
<defs>
<linearGradient id="paint0_linear_4_7" x1="51" y1="23.5" x2="-2.89784e-07" y2="23.5" gradientUnits="userSpaceOnUse">
<stop stop-color="#26D926" stop-opacity="0.7"/>
<stop offset="1" stop-color="#26D926"/>
</linearGradient>
</defs>
</svg>
